<svg width="21" height="20" viewBox="0 0 21 20" fill="none" xmlns="http://www.w3.org/2000/svg">
<path d="M16.7001 10.8333C16.5168 10.8333 16.3251 10.775 16.1418 10.7333C15.7705 10.6515 15.4056 10.5429 15.0501 10.4083C14.6635 10.2677 14.2385 10.275 13.857 10.4288C13.4755 10.5827 13.1643 10.8722 12.9834 11.2417L12.8001 11.6167C11.9884 11.1652 11.2426 10.6044 10.5834 9.95C9.92906 9.29085 9.36827 8.545 8.91675 7.73334L9.26675 7.5C9.63622 7.3191 9.92573 7.00794 10.0796 6.62641C10.2334 6.24488 10.2407 5.81993 10.1001 5.43334C9.96777 5.07702 9.8592 4.71233 9.77508 4.34167C9.73342 4.15834 9.70008 3.96667 9.67508 3.775C9.57389 3.18802 9.26644 2.65645 8.8081 2.27603C8.34977 1.89562 7.77066 1.69134 7.17508 1.7H4.67508C4.31594 1.69663 3.96029 1.77068 3.63234 1.91711C3.30439 2.06354 3.01184 2.27892 2.77461 2.54857C2.53738 2.81823 2.36103 3.13583 2.25757 3.47976C2.15412 3.8237 2.12598 4.18588 2.17508 4.54167C2.61903 8.03282 4.21344 11.2766 6.70646 13.7605C9.19948 16.2445 12.449 17.8271 15.9418 18.2583H16.2584C16.8729 18.2592 17.4662 18.0338 17.9251 17.625C18.1887 17.3892 18.3993 17.1002 18.543 16.7769C18.6866 16.4537 18.7601 16.1037 18.7584 15.75V13.25C18.7482 12.6712 18.5374 12.1138 18.162 11.6731C17.7866 11.2323 17.2699 10.9355 16.7001 10.8333ZM17.1168 15.8333C17.1166 15.9517 17.0913 16.0686 17.0424 16.1764C16.9935 16.2841 16.9223 16.3802 16.8334 16.4583C16.7406 16.5392 16.6317 16.5995 16.514 16.6354C16.3962 16.6713 16.2722 16.682 16.1501 16.6667C13.0292 16.2665 10.1303 14.8387 7.91068 12.6086C5.69108 10.3784 4.27709 7.47278 3.89175 4.35C3.87849 4.22793 3.89011 4.10444 3.92592 3.98699C3.96173 3.86955 4.02098 3.76058 4.10008 3.66667C4.17818 3.57778 4.2743 3.50654 4.38207 3.45768C4.48983 3.40883 4.60676 3.38349 4.72508 3.38334H7.22508C7.41887 3.37902 7.6081 3.4424 7.7602 3.56256C7.9123 3.68272 8.01776 3.85214 8.05842 4.04167C8.09175 4.26945 8.13342 4.49445 8.18342 4.71667C8.27968 5.15596 8.4078 5.58765 8.56675 6.00834L7.40008 6.55C7.30033 6.59577 7.2106 6.66079 7.13605 6.74133C7.06149 6.82187 7.00358 6.91635 6.96564 7.01933C6.9277 7.12231 6.91048 7.23178 6.91496 7.34144C6.91944 7.4511 6.94553 7.55879 6.99175 7.65834C8.19108 10.2273 10.2561 12.2923 12.8251 13.4917C13.028 13.575 13.2555 13.575 13.4584 13.4917C13.5623 13.4545 13.6579 13.397 13.7394 13.3227C13.8209 13.2483 13.8869 13.1584 13.9334 13.0583L14.4501 11.8917C14.8809 12.0457 15.3206 12.1737 15.7668 12.275C15.989 12.325 16.214 12.3667 16.4417 12.4C16.6313 12.4407 16.8007 12.5461 16.9209 12.6982C17.041 12.8503 17.1044 13.0395 17.1001 13.2333L17.1168 15.8333Z" fill="#1A365D"/>
</svg>
