<svg width="40" height="40" viewBox="0 0 40 40" fill="none" xmlns="http://www.w3.org/2000/svg">
<path d="M39.4001 16.5999L21.4001 0.599902C20.6001 -9.76622e-05 19.6001 -9.76622e-05 18.8001 0.599902L0.8001 16.5999C0.000100017 17.3999 -0.1999 18.5999 0.6001 19.3999C1.4001 20.1999 2.6001 20.3999 3.4001 19.5999L4.0001 18.7999L4.0001 37.9999C4.0001 39.1999 4.8001 39.9999 6.0001 39.9999H34.0001C35.2001 39.9999 36.0001 39.1999 36.0001 37.9999V18.7999L36.6001 19.3999C37.4001 20.1999 38.6001 19.9999 39.4001 19.1999C40.2001 18.5999 40.2001 17.1999 39.4001 16.5999ZM20.0001 17.9999C23.0001 17.9999 25.4001 20.3999 25.4001 23.3999C25.4001 26.3999 23.0001 28.7999 20.0001 28.7999C17.0001 28.7999 14.6001 26.3999 14.6001 23.3999C14.6001 20.3999 17.0001 17.9999 20.0001 17.9999ZM10.0001 35.9999C10.0001 35.7999 10.0001 35.7999 10.2001 35.5999C14.6001 30.1999 22.6001 29.1999 28.0001 33.5999C28.8001 34.1999 29.4001 34.7999 30.0001 35.5999C30.0001 35.5999 30.0001 35.7999 30.2001 35.9999H10.0001Z" fill="#4299E1"/>
</svg>
