<svg width="40" height="40" viewBox="0 0 40 40" fill="none" xmlns="http://www.w3.org/2000/svg">
<path d="M34 0L6 0C2.6 0 0 2.6 0 6L0 34C0 37.4 2.6 40 6 40H34C37.4 40 40 37.4 40 34V6C40 2.6 37.4 0 34 0ZM12 30C12 31.2 11.2 32 10 32C8.8 32 8 31.2 8 30V22C8 20.8 8.8 20 10 20C11.2 20 12 20.8 12 22V30ZM22 30C22 31.2 21.2 32 20 32C18.8 32 18 31.2 18 30V10C18 8.8 18.8 8 20 8C21.2 8 22 8.8 22 10V30ZM32 30C32 31.2 31.2 32 30 32C28.8 32 28 31.2 28 30V18C28 16.8 28.8 16 30 16C31.2 16 32 16.8 32 18V30Z" fill="#4299E1"/>
</svg>
