<svg width="42" height="40" viewBox="0 0 42 40" fill="none" xmlns="http://www.w3.org/2000/svg">
<path d="M41.6 36.8C39.2 34 38 30.6 38 27V12C38 5.4 33.6 0 28 0L10 0C4.4 0 0 5.4 0 12C0 18.6 4.4 24 10 24H16V27C16 31.6 17.6 36 20.4 39.4C20.8 39.8 21.4 40 22 40H40C41.2 40 42 39.2 42 38C42 37.6 41.8 37 41.6 36.8ZM10 14.4C8.8 14.4 7.8 13.2 8 12C7.8 10.8 8.8 9.6 10 9.6C11.2 9.8 12.2 10.8 12 12C12.2 13.2 11.2 14.4 10 14.4ZM23 36C21 33.4 20 30.2 20 26.8V12.8V12.6C20 12.4 20 12 20 11.8C20 9 19.2 6.2 17.4 3.8L28 3.8C31.4 3.8 34 7.4 34 11.8V26.8C34 30 34.8 33.2 36.2 36H23Z" fill="#4299E1"/>
</svg>
