<svg width="86" height="24" viewBox="0 0 86 24" fill="none" xmlns="http://www.w3.org/2000/svg">
<g clip-path="url(#clip0_1_165199)">
<path d="M13.6847 15.8182H18.0242L7.27437 4.36365H2.93481L13.6847 15.8182Z" fill="#7476ED"/>
<path d="M9.17871 4.36365L20.1055 15.2727V4.36365H17.1485V7.80785L13.6987 4.36365L9.17871 4.36365Z" fill="#E56F8C"/>
<path d="M0.853516 4.90912V15.8182H3.66229V12.383L6.93917 15.8182H11.26L0.853516 4.90912Z" fill="#64C2DB"/>
<path d="M26.8159 14.1771H29.4715V15.8182H24.7886V7.09088H26.8159V14.1771Z" fill="#3A3B7B"/>
<path d="M32.8302 15.8182C32.1927 15.8182 31.6173 15.6741 31.1042 15.3858C30.5988 15.0976 30.1984 14.6858 29.9029 14.1505C29.6153 13.6151 29.4714 12.9892 29.4714 12.2727C29.4714 11.5645 29.6191 10.9427 29.9146 10.4074C30.2101 9.86379 30.6143 9.44791 31.1275 9.15966C31.6407 8.87142 32.216 8.72729 32.8535 8.72729C33.4911 8.72729 34.0664 8.87142 34.5796 9.15966C35.0928 9.44791 35.497 9.86379 35.7925 10.4074C36.088 10.9427 36.2357 11.5645 36.2357 12.2727C36.2357 12.981 36.0841 13.6069 35.7808 14.1505C35.4854 14.6858 35.0772 15.0976 34.5563 15.3858C34.0431 15.6741 33.4678 15.8182 32.8302 15.8182ZM32.8302 13.9899C33.2112 13.9899 33.5339 13.8416 33.7982 13.5451C34.0703 13.2487 34.2064 12.8246 34.2064 12.2727C34.2064 11.7209 34.0742 11.2968 33.8099 11.0003C33.5533 10.7039 33.2345 10.5556 32.8535 10.5556C32.4648 10.5556 32.1421 10.7039 31.8856 11.0003C31.629 11.2886 31.5007 11.7127 31.5007 12.2727C31.5007 12.8246 31.6251 13.2487 31.8739 13.5451C32.1305 13.8416 32.4493 13.9899 32.8302 13.9899Z" fill="#3A3B7B"/>
<path d="M39.0607 8.72729C39.5124 8.72729 39.9068 8.82588 40.2436 9.02305C40.5881 9.22022 40.8523 9.47901 41.036 9.79939V8.82588H42.9998V15.6898C42.9998 16.3224 42.8811 16.8933 42.6438 17.4026C42.4141 17.9202 42.0581 18.331 41.5758 18.635C41.1011 18.9389 40.5077 19.0909 39.7957 19.0909C38.8463 19.0909 38.0769 18.8485 37.4874 18.3638C36.8979 17.8874 36.561 17.2384 36.4768 16.4168H38.4176C38.4789 16.6797 38.6243 16.8851 38.854 17.033C39.0837 17.1891 39.367 17.2671 39.7039 17.2671C40.1096 17.2671 40.4312 17.1398 40.6685 16.8851C40.9135 16.6386 41.036 16.2402 41.036 15.6898V14.7163C40.8446 15.0366 40.5805 15.2995 40.2436 15.5049C39.9068 15.7021 39.5124 15.8007 39.0607 15.8007C38.5325 15.8007 38.0539 15.6569 37.6252 15.3694C37.1964 15.0736 36.8557 14.6588 36.6031 14.1248C36.3581 13.5826 36.2356 12.9582 36.2356 12.2517C36.2356 11.5452 36.3581 10.9249 36.6031 10.3909C36.8557 9.85693 37.1964 9.44613 37.6252 9.1586C38.0539 8.87106 38.5325 8.72729 39.0607 8.72729ZM41.036 12.264C41.036 11.7382 40.8982 11.3233 40.6226 11.0194C40.3546 10.7154 40.0254 10.5634 39.635 10.5634C39.2445 10.5634 38.9115 10.7154 38.6358 11.0194C38.3678 11.3151 38.2339 11.7259 38.2339 12.2517C38.2339 12.7775 38.3678 13.1964 38.6358 13.5086C38.9115 13.8126 39.2445 13.9645 39.635 13.9645C40.0254 13.9645 40.3546 13.8126 40.6226 13.5086C40.8982 13.2046 41.036 12.7898 41.036 12.264Z" fill="#3A3B7B"/>
<path d="M47.1409 15.8182C46.5524 15.8182 46.0214 15.6741 45.5477 15.3858C45.0812 15.0976 44.7116 14.6858 44.4389 14.1505C44.1733 13.6151 44.0405 12.9892 44.0405 12.2727C44.0405 11.5645 44.1769 10.9427 44.4496 10.4074C44.7223 9.86379 45.0955 9.44791 45.5692 9.15966C46.0429 8.87142 46.574 8.72729 47.1625 8.72729C47.751 8.72729 48.2821 8.87142 48.7557 9.15966C49.2294 9.44791 49.6026 9.86379 49.8753 10.4074C50.1481 10.9427 50.2844 11.5645 50.2844 12.2727C50.2844 12.981 50.1445 13.6069 49.8646 14.1505C49.5918 14.6858 49.2151 15.0976 48.7342 15.3858C48.2605 15.6741 47.7295 15.8182 47.1409 15.8182ZM47.1409 13.9899C47.4926 13.9899 47.7905 13.8416 48.0344 13.5451C48.2857 13.2487 48.4113 12.8246 48.4113 12.2727C48.4113 11.7209 48.2893 11.2968 48.0452 11.0003C47.8084 10.7039 47.5142 10.5556 47.1625 10.5556C46.8037 10.5556 46.5058 10.7039 46.2689 11.0003C46.0321 11.2886 45.9137 11.7127 45.9137 12.2727C45.9137 12.8246 46.0286 13.2487 46.2582 13.5451C46.495 13.8416 46.7893 13.9899 47.1409 13.9899Z" fill="#3A3B7B"/>
<path d="M52.1119 8.26763C51.7274 8.26763 51.4113 8.16139 51.1635 7.94893C50.9243 7.7283 50.8047 7.45864 50.8047 7.13994C50.8047 6.81308 50.9243 6.54341 51.1635 6.33095C51.4113 6.11032 51.7274 6 52.1119 6C52.4878 6 52.7954 6.11032 53.0347 6.33095C53.2824 6.54341 53.4063 6.81308 53.4063 7.13994C53.4063 7.45864 53.2824 7.7283 53.0347 7.94893C52.7954 8.16139 52.4878 8.26763 52.1119 8.26763ZM53.2012 8.97856V15.8182H51.0097V8.97856H53.2012Z" fill="#3A3B7B"/>
<path d="M56.2596 9.81098C56.4366 9.48714 56.6803 9.22555 56.9911 9.02625C57.3019 8.82694 57.6661 8.72729 58.0831 8.72729C58.5709 8.72729 59.0126 8.87262 59.4081 9.16326C59.8041 9.45391 60.1149 9.86915 60.3411 10.4089C60.5745 10.9487 60.6909 11.5756 60.6909 12.2898C60.6909 13.004 60.5745 13.6351 60.3411 14.1831C60.1149 14.7229 59.8041 15.1423 59.4081 15.4412C59.0126 15.7319 58.5709 15.8772 58.0831 15.8772C57.6733 15.8772 57.3091 15.7775 56.9911 15.5783C56.6803 15.3789 56.4366 15.1215 56.2596 14.8059V19.0909H54.447V8.82694H56.2596V9.81098ZM58.8464 12.2898C58.8464 11.7583 58.7192 11.3431 58.4648 11.0442C58.2175 10.7369 57.9098 10.5833 57.5425 10.5833C57.1819 10.5833 56.8747 10.7369 56.6202 11.0442C56.373 11.3514 56.2494 11.7708 56.2494 12.3022C56.2494 12.8337 56.373 13.2531 56.6202 13.5603C56.8747 13.8676 57.1819 14.0212 57.5425 14.0212C57.9031 14.0212 58.2104 13.8676 58.4648 13.5603C58.7192 13.2448 58.8464 12.8213 58.8464 12.2898Z" fill="#3A3B7B"/>
<path d="M64.2567 15.8182C63.6799 15.8182 63.1667 15.7153 62.7166 15.5093C62.2659 15.3035 61.9104 15.0234 61.6501 14.6693C61.3892 14.307 61.243 13.9034 61.2114 13.4586H63.2143C63.2378 13.6975 63.3444 13.8911 63.5342 14.0393C63.7234 14.1875 63.9568 14.2617 64.2332 14.2617C64.4861 14.2617 64.6793 14.2122 64.814 14.1134C64.9562 14.0064 65.0273 13.8704 65.0273 13.7058C65.0273 13.5081 64.9281 13.364 64.7309 13.2733C64.5331 13.1745 64.2131 13.0675 63.771 12.9522C63.2968 12.8369 62.9018 12.7174 62.5858 12.5939C62.2699 12.4621 61.9975 12.2604 61.7682 11.9886C61.5394 11.7086 61.4247 11.3339 61.4247 10.8644C61.4247 10.4691 61.5274 10.1109 61.7326 9.78967C61.9459 9.46027 62.2544 9.20084 62.6569 9.01142C63.0681 8.822 63.5537 8.72729 64.1145 8.72729C64.9442 8.72729 65.5961 8.94142 66.0698 9.36968C66.552 9.79792 66.8284 10.3662 66.8995 11.0745H65.0273C64.9952 10.8356 64.8926 10.6462 64.7189 10.5062C64.5531 10.3662 64.3318 10.2962 64.0554 10.2962C63.8186 10.2962 63.6369 10.3456 63.5101 10.4444C63.384 10.535 63.3209 10.6627 63.3209 10.8274C63.3209 11.025 63.4196 11.1733 63.6168 11.2721C63.8221 11.371 64.1386 11.4698 64.5652 11.5686C65.0549 11.7004 65.4539 11.8321 65.7619 11.9639C66.0698 12.0874 66.3387 12.2933 66.5675 12.5816C66.8048 12.8616 66.927 13.2404 66.935 13.7181C66.935 14.1217 66.8243 14.484 66.603 14.8052C66.3897 15.1182 66.0778 15.3652 65.6672 15.5464C65.2641 15.7276 64.794 15.8182 64.2567 15.8182Z" fill="#3A3B7B"/>
<path d="M73.6992 9.27271V15.7485H71.7788V14.8666C71.5842 15.1528 71.3185 15.3849 70.9816 15.5629C70.6523 15.7331 70.2855 15.8182 69.8811 15.8182C69.4019 15.8182 68.9785 15.7099 68.6117 15.4932C68.2449 15.2688 67.9607 14.9478 67.7585 14.53C67.5564 14.1122 67.4553 13.6209 67.4553 13.0561V9.27271H69.3644V12.7891C69.3644 13.2224 69.473 13.559 69.6899 13.7988C69.9072 14.0387 70.199 14.1586 70.5659 14.1586C70.9403 14.1586 71.2359 14.0387 71.4533 13.7988C71.6706 13.559 71.7788 13.2224 71.7788 12.7891V9.27271H73.6992Z" fill="#3A3B7B"/>
<path d="M83.0247 9.27271C83.8315 9.27271 84.4718 9.51642 84.9447 10.0038C85.4261 10.4913 85.6666 11.1683 85.6666 12.0348V15.8182H83.688V12.3017C83.688 11.8839 83.5759 11.5629 83.3507 11.3385C83.1334 11.1064 82.831 10.9903 82.443 10.9903C82.0551 10.9903 81.7488 11.1064 81.5235 11.3385C81.3068 11.5629 81.1981 11.8839 81.1981 12.3017V15.8182H79.2195V12.3017C79.2195 11.8839 79.1074 11.5629 78.8822 11.3385C78.6649 11.1064 78.3625 10.9903 77.9745 10.9903C77.5866 10.9903 77.2803 11.1064 77.0551 11.3385C76.8383 11.5629 76.7296 11.8839 76.7296 12.3017V15.8182H74.7397V9.34234H76.7296V10.1547C76.9312 9.88393 77.1947 9.67116 77.5207 9.51642C77.8467 9.35395 78.215 9.27271 78.626 9.27271C79.1148 9.27271 79.5494 9.37715 79.9295 9.58605C80.3175 9.79495 80.6198 10.0928 80.8372 10.4797C81.0624 10.1238 81.3687 9.83364 81.7567 9.60927C82.1446 9.38489 82.5675 9.27271 83.0247 9.27271Z" fill="#3A3B7B"/>
</g>
<defs>
<clipPath id="clip0_1_165199">
<rect width="85.3333" height="24" fill="white" transform="translate(0.333252)"/>
</clipPath>
</defs>
</svg>
