<svg width="122" height="32" viewBox="0 0 122 32" fill="none" xmlns="http://www.w3.org/2000/svg">
<path d="M22.3896 0L0 18.5117H15.1179L9.06917 31.9811L31.6566 13.5926H15.911L22.3896 0Z" fill="#3182CE"/>
<path d="M22.3895 0L12.2762 14.9455L27.3032 14.9455L9.06909 31.9811L31.6565 13.5926L15.9109 13.5926L22.3895 0Z" fill="#2B6CB0"/>
<path d="M22.3896 0L0 18.5117H15.1179L9.06917 31.9811L18.6773 17.1589H4.47017L22.3896 0Z" fill="#4299E1"/>
<path d="M85.4981 22.6722C84.5014 22.6722 83.5868 22.5849 82.7543 22.4104C81.9218 22.2243 81.1655 21.98 80.4854 21.6775C79.8171 21.3634 79.2073 21.0085 78.6562 20.613L80.0281 18.2397C80.9896 18.9144 81.957 19.4089 82.9302 19.723C83.9034 20.0255 84.8356 20.1767 85.7268 20.1767C86.1137 20.1767 86.5182 20.1418 86.9404 20.072C87.3625 19.9906 87.7142 19.8568 87.9957 19.6706C88.2888 19.4729 88.4354 19.2053 88.4354 18.8679C88.4354 18.6701 88.365 18.5072 88.2243 18.3793C88.0953 18.2397 87.9136 18.1291 87.6791 18.0477C87.4446 17.9663 87.169 17.9023 86.8524 17.8557C86.5475 17.7976 86.2134 17.7569 85.8499 17.7336C85.4981 17.6987 85.1405 17.6638 84.777 17.6289C83.9562 17.5474 83.2116 17.4136 82.5433 17.2275C81.8749 17.0414 81.3003 16.8029 80.8196 16.512C80.3506 16.2095 79.9871 15.8431 79.7291 15.4126C79.4712 14.9822 79.3422 14.4877 79.3422 13.9293C79.3422 13.301 79.4946 12.7426 79.7995 12.254C80.1161 11.7654 80.5558 11.3582 81.1186 11.0324C81.6814 10.695 82.3263 10.4391 83.0533 10.2646C83.792 10.0901 84.5835 10.0028 85.4277 10.0028C86.3072 10.0028 87.0986 10.0843 87.8022 10.2471C88.5174 10.3984 89.1448 10.6078 89.6841 10.8754C90.2352 11.1429 90.6925 11.4338 91.056 11.7479L89.6138 13.8071C89.2503 13.5395 88.8282 13.3127 88.3474 13.1265C87.8784 12.9288 87.3801 12.7775 86.8524 12.6728C86.3365 12.5681 85.8206 12.5158 85.3046 12.5158C84.777 12.5158 84.3021 12.5623 83.88 12.6554C83.4696 12.7368 83.1413 12.8648 82.895 13.0393C82.6605 13.2022 82.5433 13.4174 82.5433 13.685C82.5433 13.9293 82.6429 14.1329 82.8423 14.2957C83.0533 14.447 83.323 14.5691 83.6513 14.6622C83.9796 14.7437 84.3431 14.8076 84.7418 14.8542C85.1405 14.9007 85.5274 14.9472 85.9026 14.9938C86.6062 15.0636 87.298 15.1567 87.9781 15.273C88.6582 15.3777 89.2679 15.5522 89.8073 15.7965C90.3584 16.0292 90.7981 16.3666 91.1264 16.8087C91.4547 17.2391 91.6189 17.8267 91.6189 18.5712C91.6189 19.4321 91.355 20.1709 90.8274 20.7875C90.2997 21.3925 89.5727 21.8578 88.6464 22.1836C87.7318 22.5093 86.6824 22.6722 85.4981 22.6722Z" fill="#122743"/>
<path d="M111.42 22.6395V19.9848H114.726V12.8997H111.42L111.361 10.3401H121.041V12.8997H117.716V19.9848H121.041V22.6395H111.42Z" fill="#122743"/>
<path d="M36.1523 20.6346L36.1855 22.6395H48.5854L48.5522 19.9714H40.8106L48.3587 12.3454V10.3401H37.3531V13.1481H43.577L36.1523 20.6346Z" fill="#122743"/>
<path d="M51.0771 22.6395V10.3401H62.1226V12.8124H53.9792V15.081H61.3312V17.4893H53.9792V20.0761H62.2985V22.6395H51.0771Z" fill="#122743"/>
<path d="M103.819 22.6024C102.505 22.6024 101.362 22.3464 100.389 21.8346C99.4158 21.3227 98.6595 20.6188 98.1201 19.723C97.5807 18.8272 97.311 17.7336 97.311 16.5818V10.3401H100.336V16.5818C100.336 20.8001 107.389 20.8001 107.389 16.5818V10.3401H110.309V16.5818C110.309 17.7336 110.039 18.8272 109.5 19.723C108.96 20.6188 108.204 21.3227 107.231 21.8346C106.258 22.3464 105.12 22.6024 103.819 22.6024Z" fill="#122743"/>
<path d="M64.4668 16.5818V10.3401H67.492V16.5818C67.492 20.9395 74.545 20.9395 74.545 16.5818V10.3401H77.4646V16.5818C77.4646 24.7075 64.4668 24.6531 64.4668 16.5818Z" fill="#122743"/>
</svg>
