<svg width="86" height="24" viewBox="0 0 86 24" fill="none" xmlns="http://www.w3.org/2000/svg">
<path d="M13.646 17.6778L2.55263 9.65603C1.42846 8.84316 1.81061 7.15064 3.21242 6.75263L15.0026 3.39809C15.2524 3.30362 15.52 3.27295 15.7834 3.30863C16.0467 3.34432 16.2981 3.44532 16.5168 3.60327C16.7353 3.76121 16.9149 3.97154 17.0404 4.2168C17.166 4.46205 17.2339 4.73516 17.2386 5.01346L16.5399 16.3891C16.457 17.7393 14.7701 18.4906 13.646 17.6778Z" fill="#E9327C"/>
<path d="M10.1276 19.6581L3.59219 6.26006C3.44279 5.95356 3.37705 5.60975 3.40222 5.26656C3.42738 4.92337 3.54247 4.59413 3.73478 4.31516C3.9271 4.03618 4.18918 3.8183 4.49212 3.68555C4.79506 3.55279 5.12709 3.51032 5.45159 3.56282L17.5634 5.52239C17.8422 5.56751 18.1068 5.68137 18.3356 5.85461C18.5642 6.02785 18.7504 6.25552 18.8789 6.5189C19.0072 6.78228 19.0742 7.07384 19.0741 7.36962C19.0741 7.6654 19.007 7.95695 18.8786 8.22028L13.2992 19.6588C13.1493 19.9644 12.922 20.2208 12.6422 20.3998C12.3624 20.5789 12.041 20.6735 11.7132 20.6734C11.3854 20.6734 11.064 20.5786 10.7843 20.3995C10.5045 20.2203 10.2773 19.9638 10.1276 19.6581Z" fill="#1DACE3"/>
<path d="M17.2091 5.4646L11.1714 4.48773L3.75854 6.59769L6.71739 12.6657L13.6461 17.6777C13.7989 17.7871 13.9671 17.8708 14.1445 17.926L16.7762 12.5309L17.2091 5.4646Z" fill="#001A49"/>
<path d="M47.791 7.03073C47.791 6.79547 47.8576 6.5655 47.9822 6.36989C48.1069 6.17428 48.2842 6.02182 48.4915 5.93179C48.6988 5.84176 48.9269 5.81821 49.1471 5.8641C49.3671 5.91 49.5694 6.02329 49.728 6.18964C49.8868 6.35599 49.9948 6.56794 50.0386 6.79868C50.0823 7.02942 50.0599 7.26858 49.974 7.48593C49.8881 7.70328 49.7427 7.88905 49.5561 8.01976C49.3695 8.15046 49.1501 8.22022 48.9257 8.22022C48.6257 8.21702 48.3389 8.09066 48.1267 7.86829C47.9146 7.6459 47.794 7.34521 47.791 7.03073ZM47.9802 8.80166H49.8718V15.4096H47.9802V8.80166Z" fill="#001A49"/>
<path d="M58.0404 12.1057C58.0625 12.5424 58.0018 12.9795 57.8621 13.3916C57.7224 13.8037 57.5063 14.1828 57.2264 14.5071C56.9464 14.8314 56.608 15.0944 56.2307 15.2812C55.8534 15.4679 55.4446 15.5746 55.0278 15.595C54.6773 15.615 54.3268 15.553 54.0019 15.4136C53.677 15.2741 53.3858 15.0606 53.1492 14.7886V18.0531H51.2583V8.80168H53.1492V9.42267C53.3858 9.15074 53.6771 8.93741 54.002 8.79805C54.3269 8.65871 54.6773 8.59683 55.0278 8.61692C55.4446 8.63733 55.8533 8.74393 56.2306 8.93054C56.608 9.11723 56.9463 9.38021 57.2263 9.70445C57.5063 10.0287 57.7224 10.4077 57.8621 10.8198C58.0018 11.2319 58.0625 11.6689 58.0404 12.1057ZM56.1495 12.1057C56.1421 11.7963 56.0478 11.4961 55.8784 11.2426C55.709 10.9891 55.4721 10.7936 55.1973 10.6806C54.9224 10.5676 54.6219 10.5421 54.3333 10.6072C54.0447 10.6724 53.7808 10.8253 53.5747 11.0469C53.3686 11.2684 53.2294 11.5488 53.1746 11.8529C53.1197 12.157 53.1517 12.4713 53.2664 12.7565C53.3811 13.0416 53.5735 13.285 53.8195 13.4561C54.0655 13.6272 54.3542 13.7184 54.6494 13.7184C54.8521 13.728 55.0545 13.6925 55.2432 13.6143C55.4319 13.5361 55.6027 13.4169 55.7444 13.2646C55.886 13.1123 55.9953 12.9303 56.0652 12.7305C56.135 12.5308 56.1638 12.3178 56.1495 12.1057Z" fill="#001A49"/>
<path d="M63.8771 13.4261C63.8771 14.9462 62.6163 15.5938 61.2547 15.5938C60.7047 15.646 60.1523 15.5239 59.6691 15.2434C59.1859 14.963 58.7942 14.537 58.5444 14.0205L60.1831 13.043C60.2497 13.2818 60.3925 13.4893 60.5875 13.6308C60.7826 13.7724 61.0181 13.8395 61.2547 13.8209C61.7086 13.8209 61.9349 13.675 61.9349 13.4112C61.9349 12.6839 58.8338 13.0677 58.8338 10.7807C58.8338 9.34038 59.9932 8.61373 61.3073 8.61373C61.8002 8.59751 62.2881 8.72011 62.7201 8.96876C63.153 9.21742 63.5135 9.58301 63.7652 10.0275L62.1519 10.9395C62.0814 10.7661 61.9636 10.6182 61.8134 10.5145C61.6632 10.4107 61.4871 10.3557 61.3073 10.3561C60.9795 10.3561 60.7779 10.4858 60.7779 10.7263C60.7761 11.4847 63.8771 10.9823 63.8771 13.4261Z" fill="#001A49"/>
<path d="M70.7886 8.8017V15.4097H68.8976V14.7874C68.6793 15.0615 68.4017 15.2775 68.0882 15.4177C67.7753 15.5578 67.4346 15.6182 67.0945 15.5938C65.8213 15.5938 64.7373 14.6422 64.7373 12.8576V8.8017H66.6282V12.5685C66.6122 12.726 66.6295 12.8853 66.6783 13.0352C66.7272 13.185 66.8063 13.322 66.9108 13.4365C67.0153 13.551 67.1421 13.6402 67.2825 13.6979C67.4235 13.7557 67.5743 13.7806 67.7252 13.771C68.4184 13.771 68.9001 13.3483 68.9001 12.4097V8.8017H70.7886Z" fill="#001A49"/>
<path d="M81.6269 11.3518V15.4096H79.736V11.5242C79.736 10.8636 79.433 10.4404 78.8282 10.4404C78.1975 10.4404 77.8451 10.9032 77.8451 11.683V15.4096H75.9535V11.5242C75.9535 10.8636 75.6511 10.4404 75.0458 10.4404C74.4157 10.4404 74.0626 10.9032 74.0626 11.683V15.4096H72.1716V8.80165H74.0657V9.40709C74.2617 9.13749 74.5189 8.92371 74.8139 8.78518C75.1088 8.64672 75.4328 8.58797 75.755 8.61432C76.0784 8.59773 76.4012 8.66932 76.6906 8.82213C76.98 8.97492 77.2267 9.20367 77.4066 9.48617C77.6163 9.19065 77.8939 8.9556 78.2136 8.80314C78.5333 8.65064 78.8851 8.58569 79.2351 8.61432C80.6821 8.61691 81.6269 9.70008 81.6269 11.3518Z" fill="#001A49"/>
<path d="M83.2291 8.76079C84.0045 8.76079 84.6328 8.102 84.6328 7.28933C84.6328 6.47667 84.0045 5.81787 83.2291 5.81787C82.4537 5.81787 81.8254 6.47667 81.8254 7.28933C81.8254 8.102 82.4537 8.76079 83.2291 8.76079Z" fill="#001A49"/>
<path d="M21.9736 5.76215H23.8652V15.4097H21.9736V5.76215ZM24.9362 12.1057C24.9341 11.4129 25.1282 10.735 25.4938 10.158C25.8595 9.58085 26.3802 9.13047 26.9902 8.86385C27.6002 8.59723 28.2719 8.52633 28.9203 8.66015C29.5687 8.79397 30.1647 9.12645 30.6327 9.61559C31.1008 10.1047 31.4198 10.7283 31.5495 11.4077C31.6792 12.087 31.6137 12.7914 31.3613 13.4316C31.1089 14.0719 30.6809 14.6192 30.1316 15.0043C29.5822 15.3894 28.9362 15.595 28.2753 15.595C27.8364 15.5999 27.401 15.5131 26.9944 15.3396C26.5879 15.1662 26.2183 14.9095 25.9075 14.5847C25.5966 14.2598 25.3506 13.8732 25.1838 13.4476C25.0171 13.022 24.9329 12.5658 24.9362 12.1057ZM29.7272 12.1057C29.7198 11.8068 29.6285 11.5169 29.4647 11.2722C29.301 11.0275 29.072 10.8388 28.8065 10.7298C28.5409 10.6208 28.2506 10.5962 27.9719 10.6593C27.6931 10.7223 27.4383 10.8702 27.2393 11.0842C27.0402 11.2983 26.9058 11.5691 26.8528 11.8628C26.7999 12.1566 26.8307 12.4602 26.9415 12.7357C27.0523 13.0111 27.2381 13.2462 27.4757 13.4116C27.7132 13.5769 27.992 13.6652 28.2772 13.6653C28.4724 13.6711 28.6668 13.6344 28.8478 13.5576C29.029 13.4809 29.1929 13.3656 29.3294 13.219C29.4658 13.0725 29.5719 12.8979 29.6408 12.7063C29.7097 12.5146 29.74 12.3101 29.7297 12.1057H29.7272ZM39.1565 8.79974V15.0778C39.1565 17.2979 37.5049 18.2359 35.8285 18.2359C35.2385 18.2826 34.6475 18.158 34.1205 17.8759C33.5934 17.5939 33.1506 17.1651 32.8406 16.6367L34.4539 15.6586C34.5842 15.9343 34.7916 16.1619 35.0486 16.3107C35.3055 16.4596 35.5996 16.5227 35.8916 16.4915C36.0781 16.5182 36.2678 16.5007 36.4468 16.4402C36.6259 16.3797 36.7897 16.2779 36.9263 16.1422C37.0627 16.0065 37.1684 15.8405 37.2355 15.6562C37.3026 15.472 37.3294 15.2742 37.3138 15.0778V14.4697C37.0923 14.7537 36.8104 14.9792 36.4908 15.1284C36.1711 15.2775 35.8225 15.3461 35.473 15.3286C34.641 15.3015 33.8517 14.9359 33.2723 14.3094C32.6929 13.6828 32.3688 12.8444 32.3688 11.9718C32.3688 11.0991 32.6929 10.2608 33.2723 9.6342C33.8517 9.00763 34.641 8.64208 35.473 8.61497C35.8225 8.59744 36.1711 8.666 36.4908 8.81517C36.8104 8.96433 37.0923 9.18991 37.3138 9.47389V8.79974H39.1565ZM37.3163 11.9715C37.3288 11.6523 37.2499 11.3366 37.0898 11.0648C36.9297 10.793 36.6957 10.5776 36.4179 10.4463C36.1401 10.315 35.8312 10.2739 35.5309 10.3281C35.2307 10.3824 34.9527 10.5295 34.7328 10.7507C34.5129 10.9719 34.3612 11.2569 34.2971 11.5691C34.233 11.8815 34.2595 12.2067 34.3731 12.5031C34.4867 12.7995 34.6824 13.0534 34.9348 13.2323C35.1872 13.4113 35.4849 13.5069 35.7896 13.5071C35.9883 13.5217 36.1877 13.4926 36.375 13.4216C36.5623 13.3506 36.7333 13.2393 36.8772 13.0949C37.0209 12.9504 37.1343 12.776 37.21 12.5829C37.2856 12.3897 37.3218 12.1821 37.3163 11.9734V11.9715ZM40.2275 12.1011C40.2255 11.4083 40.4195 10.7305 40.7852 10.1534C41.1508 9.57631 41.6716 9.12593 42.2815 8.85931C42.8915 8.59269 43.5632 8.52179 44.2117 8.65561C44.8601 8.78944 45.456 9.12191 45.9241 9.61106C46.3921 10.1001 46.7112 10.7238 46.8409 11.4031C46.9705 12.0825 46.9051 12.7868 46.6526 13.4271C46.4002 14.0673 45.9723 14.6147 45.4229 14.9998C44.8736 15.3849 44.2276 15.5905 43.5667 15.5905C43.1281 15.5954 42.6931 15.5087 42.2868 15.3355C41.8805 15.1624 41.5112 14.9061 41.2004 14.5817C40.8896 14.2573 40.6435 13.8714 40.4765 13.4462C40.3094 13.0211 40.2248 12.5654 40.2275 12.1057V12.1011ZM45.0186 12.1011C45.0113 11.8021 44.92 11.512 44.7563 11.267C44.5925 11.0221 44.3634 10.8333 44.0977 10.7241C43.832 10.615 43.5416 10.5904 43.2626 10.6535C42.9837 10.7165 42.7287 10.8644 42.5296 11.0786C42.3304 11.2928 42.1959 11.5638 42.143 11.8577C42.09 12.1516 42.1209 12.4555 42.2318 12.731C42.3427 13.0066 42.5286 13.2418 42.7664 13.4072C43.0042 13.5726 43.2832 13.6608 43.5685 13.6608C43.7632 13.6661 43.9569 13.6294 44.1374 13.5527C44.3179 13.476 44.4813 13.361 44.6174 13.215C44.7535 13.0691 44.8595 12.8951 44.9285 12.7042C44.9976 12.5133 45.0282 12.3095 45.0186 12.1057V12.1011Z" fill="#001A49"/>
</svg>
