<svg width="86" height="24" viewBox="0 0 86 24" fill="none" xmlns="http://www.w3.org/2000/svg">
<path d="M0.490234 17.3683L0.490236 6.38361L5.72954 9.43492V14.3475L9.92103 16.8191L14.1125 14.3475V9.43492L19.3518 6.38361V17.3683L9.92103 22.8606L0.490234 17.3683Z" fill="#192657"/>
<path fill-rule="evenodd" clip-rule="evenodd" d="M3.1099 7.90933L0.490234 6.38365L9.92103 0.891296L19.3518 6.38365L16.7321 7.90933V15.9953L9.92103 20.1146L3.10989 15.9953L3.1099 7.90933ZM16.4484 8.07461L14.1125 9.43497V9.40445L9.92103 6.93287L5.72954 9.40445V9.43497L3.39369 8.07461V15.8263L9.92103 19.7739L16.4484 15.8263V8.07461Z" fill="url(#paint0_linear_1_165110)"/>
<path d="M24.373 16.5002V7.27301H26.0329V14.9183H30.0567V16.5002H24.373Z" fill="#192657"/>
<path d="M33.6402 16.6848C33.0199 16.6848 32.4624 16.553 31.9678 16.2893C31.4732 16.0257 31.0834 15.6434 30.7984 15.1425C30.5133 14.6416 30.3708 14.0397 30.3708 13.3367V13.1257C30.3708 12.4227 30.5133 11.8207 30.7984 11.3198C31.0834 10.8189 31.4732 10.4367 31.9678 10.1731C32.4624 9.90937 33.0199 9.77759 33.6402 9.77759C34.2605 9.77759 34.818 9.90937 35.3126 10.1731C35.8072 10.4367 36.197 10.8189 36.482 11.3198C36.767 11.8207 36.9096 12.4227 36.9096 13.1257V13.3367C36.9096 14.0397 36.767 14.6416 36.482 15.1425C36.197 15.6434 35.8072 16.0257 35.3126 16.2893C34.818 16.553 34.2605 16.6848 33.6402 16.6848ZM33.6402 15.2084C34.1264 15.2084 34.5288 15.0459 34.8473 14.7207C35.1659 14.3868 35.3251 13.9122 35.3251 13.2971V13.1653C35.3251 12.5502 35.1659 12.08 34.8473 11.7548C34.5372 11.4209 34.1348 11.2539 33.6402 11.2539C33.154 11.2539 32.7516 11.4209 32.4331 11.7548C32.1145 12.08 31.9553 12.5502 31.9553 13.1653V13.2971C31.9553 13.9122 32.1145 14.3868 32.4331 14.7207C32.7516 15.0459 33.154 15.2084 33.6402 15.2084Z" fill="#192657"/>
<path d="M37.5044 13.2575V13.0467C37.5044 12.3612 37.6343 11.7768 37.8942 11.2935C38.154 10.8013 38.4978 10.4279 38.9253 10.1731C39.3612 9.90937 39.8348 9.77759 40.3462 9.77759C40.9162 9.77759 41.348 9.88306 41.6413 10.094C41.9348 10.3048 42.1485 10.5246 42.2826 10.7531H42.509V9.96211H44.0682V17.6602C44.0682 18.1084 43.9424 18.4643 43.6909 18.728C43.4395 19.0004 43.1042 19.1366 42.685 19.1366H38.5103V17.6866H42.1317C42.3664 17.6866 42.4838 17.5548 42.4838 17.2911V15.5907H42.2575C42.1736 15.7313 42.0563 15.8763 41.9054 16.0257C41.7545 16.1663 41.5533 16.2849 41.3018 16.3816C41.0504 16.4783 40.7318 16.5266 40.3462 16.5266C39.8348 16.5266 39.3612 16.3992 38.9253 16.1443C38.4978 15.8807 38.154 15.5072 37.8942 15.0239C37.6343 14.5318 37.5044 13.943 37.5044 13.2575ZM40.7989 15.0766C41.285 15.0766 41.6916 14.914 42.0186 14.5889C42.3455 14.2638 42.509 13.8068 42.509 13.218V13.0862C42.509 12.4886 42.3455 12.0317 42.0186 11.7153C41.7 11.3902 41.2935 11.2276 40.7989 11.2276C40.3126 11.2276 39.9061 11.3902 39.5792 11.7153C39.2522 12.0317 39.0887 12.4886 39.0887 13.0862V13.218C39.0887 13.8068 39.2522 14.2638 39.5792 14.5889C39.9061 14.914 40.3126 15.0766 40.7989 15.0766Z" fill="#192657"/>
<path d="M48.2266 16.6848C47.6062 16.6848 47.0488 16.553 46.5542 16.2893C46.0596 16.0257 45.6698 15.6434 45.3848 15.1425C45.0998 14.6416 44.9573 14.0397 44.9573 13.3367V13.1257C44.9573 12.4227 45.0998 11.8207 45.3848 11.3198C45.6698 10.8189 46.0596 10.4367 46.5542 10.1731C47.0488 9.90937 47.6062 9.77759 48.2266 9.77759C48.8469 9.77759 49.4044 9.90937 49.899 10.1731C50.3936 10.4367 50.7834 10.8189 51.0684 11.3198C51.3534 11.8207 51.4959 12.4227 51.4959 13.1257V13.3367C51.4959 14.0397 51.3534 14.6416 51.0684 15.1425C50.7834 15.6434 50.3936 16.0257 49.899 16.2893C49.4044 16.553 48.8469 16.6848 48.2266 16.6848ZM48.2266 15.2084C48.7128 15.2084 49.1152 15.0459 49.4337 14.7207C49.7523 14.3868 49.9116 13.9122 49.9116 13.2971V13.1653C49.9116 12.5502 49.7523 12.08 49.4337 11.7548C49.1235 11.4209 48.7212 11.2539 48.2266 11.2539C47.7404 11.2539 47.338 11.4209 47.0194 11.7548C46.7009 12.08 46.5416 12.5502 46.5416 13.1653V13.2971C46.5416 13.9122 46.7009 14.3868 47.0194 14.7207C47.338 15.0459 47.7404 15.2084 48.2266 15.2084Z" fill="#192657"/>
<path d="M52.3926 16.5002V9.96204H53.9769V16.5002H52.3926ZM53.1847 9.19752C52.8997 9.19752 52.6566 9.10088 52.4554 8.90752C52.2626 8.71417 52.1663 8.45932 52.1663 8.14301C52.1663 7.82664 52.2626 7.57179 52.4554 7.37844C52.6566 7.18514 52.8997 7.08844 53.1847 7.08844C53.4782 7.08844 53.7213 7.18514 53.9141 7.37844C54.1069 7.57179 54.2033 7.82664 54.2033 8.14301C54.2033 8.45932 54.1069 8.71417 53.9141 8.90752C53.7213 9.10088 53.4782 9.19752 53.1847 9.19752Z" fill="#192657"/>
<path d="M55.1667 19.1366V9.96211H56.7261V10.7531H56.9525C57.0947 10.4982 57.3167 10.2741 57.619 10.0807C57.9207 9.87862 58.3524 9.77759 58.9141 9.77759C59.4171 9.77759 59.8823 9.90937 60.3095 10.1731C60.7373 10.4279 61.0809 10.8057 61.3408 11.3067C61.6007 11.8076 61.7306 12.4139 61.7306 13.1257V13.3367C61.7306 14.0484 61.6007 14.6548 61.3408 15.1557C61.0809 15.6566 60.7373 16.0389 60.3095 16.3025C59.8823 16.5574 59.4171 16.6848 58.9141 16.6848C58.5365 16.6848 58.218 16.6364 57.9581 16.5398C57.7066 16.4519 57.5013 16.3376 57.3424 16.197C57.1912 16.0477 57.0696 15.8983 56.9776 15.7489H56.7512V19.1366H55.1667ZM58.4361 15.2348C58.9308 15.2348 59.3374 15.0722 59.6558 14.7471C59.9827 14.4131 60.1461 13.9298 60.1461 13.2971V13.1653C60.1461 12.5326 59.9827 12.0536 59.6558 11.7285C59.329 11.3946 58.9224 11.2276 58.4361 11.2276C57.9497 11.2276 57.5431 11.3946 57.2163 11.7285C56.8895 12.0536 56.7261 12.5326 56.7261 13.1653V13.2971C56.7261 13.9298 56.8895 14.4131 57.2163 14.7471C57.5431 15.0722 57.9497 15.2348 58.4361 15.2348Z" fill="#192657"/>
<path d="M65.2097 16.6848C64.3965 16.6848 63.73 16.5002 63.2102 16.1311C62.691 15.762 62.3764 15.2348 62.2671 14.5493L63.7261 14.1539C63.7847 14.4614 63.8812 14.7031 64.015 14.8789C64.1578 15.0546 64.3296 15.182 64.5309 15.2612C64.7401 15.3314 64.9665 15.3666 65.2097 15.3666C65.5784 15.3666 65.8511 15.3007 66.0273 15.1689C66.203 15.0283 66.2911 14.8569 66.2911 14.6548C66.2911 14.4527 66.2075 14.2989 66.0396 14.1934C65.8723 14.0792 65.604 13.9869 65.2348 13.9166L64.8829 13.8507C64.4467 13.7628 64.0485 13.6442 63.6882 13.4948C63.3279 13.3367 63.0384 13.1213 62.8204 12.8489C62.6028 12.5765 62.4935 12.225 62.4935 11.7943C62.4935 11.1441 62.72 10.6476 63.1729 10.3048C63.6252 9.95334 64.2208 9.77759 64.9582 9.77759C65.6542 9.77759 66.2326 9.94019 66.6933 10.2653C67.1545 10.5905 67.4563 11.0167 67.599 11.5439L66.1277 12.0185C66.0608 11.6845 65.9225 11.4472 65.7128 11.3067C65.5114 11.1661 65.2599 11.0957 64.9582 11.0957C64.6564 11.0957 64.4261 11.1528 64.2666 11.2671C64.1076 11.3726 64.0279 11.522 64.0279 11.7153C64.0279 11.9262 64.1115 12.0843 64.2794 12.1898C64.4467 12.2865 64.6732 12.3612 64.9582 12.4139L65.3101 12.4798C65.7797 12.5677 66.203 12.6863 66.5806 12.8357C66.966 12.9763 67.2677 13.1828 67.4858 13.4553C67.7123 13.7189 67.8255 14.0792 67.8255 14.5362C67.8255 15.2216 67.5862 15.7533 67.1082 16.1311C66.6392 16.5002 66.0061 16.6848 65.2097 16.6848Z" fill="#192657"/>
<path d="M71.0241 16.6056C70.5383 16.6056 70.1105 16.4914 69.7419 16.263C69.3816 16.0257 69.1005 15.7005 68.8991 15.2875C68.6984 14.8745 68.5974 14.3999 68.5974 13.8639V9.9621H70.1819V13.7321C70.1819 14.2242 70.2952 14.5933 70.5216 14.8393C70.7558 15.0854 71.0871 15.2084 71.5149 15.2084C72.0007 15.2084 72.3783 15.0414 72.6466 14.7075C72.9148 14.3648 73.0487 13.8903 73.0487 13.2839V9.9621H74.6332V16.5002H73.0738V15.6434H72.8479C72.747 15.8631 72.5584 16.0784 72.2818 16.2893C72.0052 16.5002 71.5858 16.6056 71.0241 16.6056Z" fill="#192657"/>
<path d="M75.8306 16.5002V9.96211H77.3894V10.6739H77.6159C77.7246 10.4542 77.9053 10.2653 78.1563 10.1071C78.4079 9.94018 78.7391 9.85669 79.1502 9.85669C79.5942 9.85669 79.9505 9.94895 80.2188 10.1335C80.4871 10.3092 80.6923 10.5421 80.8351 10.8321H81.061C81.2038 10.5509 81.4051 10.3181 81.665 10.1335C81.9249 9.94895 82.2936 9.85669 82.7716 9.85669C83.157 9.85669 83.505 9.94457 83.8151 10.1203C84.1336 10.2872 84.3851 10.5465 84.5697 10.898C84.7621 11.2407 84.8586 11.6757 84.8586 12.203V16.5002H83.2741V12.3217C83.2741 11.9613 83.1865 11.6933 83.0103 11.5176C82.834 11.333 82.587 11.2407 82.2685 11.2407C81.9082 11.2407 81.6271 11.3638 81.4258 11.6098C81.2333 11.8471 81.1368 12.1898 81.1368 12.638V16.5002H79.5523V12.3217C79.5523 11.9613 79.4642 11.6933 79.2885 11.5176C79.1123 11.333 78.8652 11.2407 78.5462 11.2407C78.1859 11.2407 77.9053 11.3638 77.704 11.6098C77.511 11.8471 77.4145 12.1898 77.4145 12.638V16.5002H75.8306Z" fill="#192657"/>
<defs>
<linearGradient id="paint0_linear_1_165110" x1="3.10989" y1="5.16312" x2="17.2561" y2="5.16312" gradientUnits="userSpaceOnUse">
<stop stop-color="#64C2DB"/>
<stop offset="0.307292" stop-color="#7476ED"/>
<stop offset="0.604167" stop-color="#C994DF"/>
<stop offset="1" stop-color="#E56F8C"/>
</linearGradient>
</defs>
</svg>
