<svg width="86" height="24" viewBox="0 0 86 24" fill="none" xmlns="http://www.w3.org/2000/svg">
<g clip-path="url(#clip0_1_165212)">
<path d="M25.5159 16.7152H31.6231V14.7869H27.6865V7.52338H25.5159V16.7152Z" fill="#2F234F"/>
<path d="M35.2415 15.4296C34.3708 15.4296 33.917 14.6326 33.917 13.437C33.917 12.2414 34.3708 11.4315 35.2415 11.4315C36.1122 11.4315 36.5782 12.2414 36.5782 13.437C36.5782 14.6326 36.1122 15.4296 35.2415 15.4296ZM35.2537 16.9209C37.2772 16.9209 38.6017 15.4168 38.6017 13.437C38.6017 11.4572 37.2772 9.95306 35.2537 9.95306C33.2425 9.95306 31.8936 11.4572 31.8936 13.437C31.8936 15.4168 33.2425 16.9209 35.2537 16.9209Z" fill="#2F234F"/>
<path d="M42.1041 18.9908C43.0361 18.9908 43.8578 18.7722 44.4096 18.258C44.9124 17.7823 45.2435 17.0624 45.2435 16.0725V10.1331H43.3304V10.8402H43.3059C42.938 10.2874 42.3739 9.94031 41.54 9.94031C39.9825 9.94031 38.9033 11.303 38.9033 13.2314C38.9033 15.2497 40.2155 16.3553 41.6258 16.3553C42.3861 16.3553 42.8644 16.0339 43.2323 15.5968H43.2814V16.2525C43.2814 17.0495 42.9257 17.5123 42.0796 17.5123C41.4173 17.5123 41.0862 17.2167 40.9758 16.8696H39.0382C39.2344 18.2451 40.3749 18.9908 42.1041 18.9908ZM42.0918 14.7998C41.3438 14.7998 40.8532 14.157 40.8532 13.1671C40.8532 12.1644 41.3438 11.5216 42.0918 11.5216C42.9257 11.5216 43.3672 12.2672 43.3672 13.1542C43.3672 14.0799 42.9625 14.7998 42.0918 14.7998Z" fill="#2F234F"/>
<path d="M49.1773 15.4296C48.3066 15.4296 47.8528 14.6326 47.8528 13.437C47.8528 12.2414 48.3066 11.4315 49.1773 11.4315C50.048 11.4315 50.514 12.2414 50.514 13.437C50.514 14.6326 50.048 15.4296 49.1773 15.4296ZM49.1895 16.9209C51.213 16.9209 52.5376 15.4168 52.5376 13.437C52.5376 11.4572 51.213 9.95306 49.1895 9.95306C47.1783 9.95306 45.8293 11.4572 45.8293 13.437C45.8293 15.4168 47.1783 16.9209 49.1895 16.9209Z" fill="#2F234F"/>
<path d="M53.1211 16.7152H55.12V10.1331H53.1211V16.7152ZM53.1211 9.22033H55.12V7.52338H53.1211V9.22033Z" fill="#2F234F"/>
<path d="M55.9873 18.8879H57.9863V16.0339H58.0108C58.4032 16.5867 58.9796 16.921 59.789 16.921C61.4323 16.921 62.5237 15.5583 62.5237 13.4242C62.5237 11.4444 61.5059 9.94031 59.838 9.94031C58.9796 9.94031 58.3664 10.3388 57.9372 10.9302H57.9004V10.1331H55.9873V18.8879ZM59.2739 15.3012C58.4155 15.3012 57.9249 14.5684 57.9249 13.5013C57.9249 12.4343 58.3664 11.6244 59.2371 11.6244C60.0956 11.6244 60.5003 12.37 60.5003 13.5013C60.5003 14.6198 60.0342 15.3012 59.2739 15.3012Z" fill="#2F234F"/>
<path d="M65.7787 16.921C67.422 16.921 68.6361 16.1753 68.6361 14.7355C68.6361 13.0514 67.3362 12.7557 66.2325 12.5629C65.4353 12.4086 64.724 12.3443 64.724 11.8815C64.724 11.4701 65.1042 11.2773 65.5948 11.2773C66.1466 11.2773 66.5268 11.4573 66.6004 12.0486H68.4399C68.3418 10.7502 67.3852 9.94031 65.607 9.94031C64.1231 9.94031 62.8968 10.6602 62.8968 12.0486C62.8968 13.5913 64.0618 13.8999 65.1533 14.0927C65.9872 14.247 66.7475 14.3113 66.7475 14.9026C66.7475 15.3269 66.3674 15.5583 65.7664 15.5583C65.1042 15.5583 64.6873 15.2369 64.6137 14.5812H62.7251C62.7864 16.0339 63.9392 16.921 65.7787 16.921Z" fill="#2F234F"/>
<path d="M71.351 16.9081C72.2217 16.9081 72.7735 16.5481 73.2273 15.9053H73.2641V16.7153H75.1772V10.1331H73.1782V13.8099C73.1782 14.5941 72.7613 15.134 72.0745 15.134C71.4368 15.134 71.1302 14.7355 71.1302 14.0156V10.1331H69.1436V14.4526C69.1436 15.9182 69.9039 16.9081 71.351 16.9081Z" fill="#2F234F"/>
<path d="M76.0469 16.7153H78.0458V13.0257C78.0458 12.2415 78.4137 11.6887 79.0392 11.6887C79.6401 11.6887 79.9221 12.1001 79.9221 12.8071V16.7153H81.9211V13.0257C81.9211 12.2415 82.2767 11.6887 82.9144 11.6887C83.5153 11.6887 83.7974 12.1001 83.7974 12.8071V16.7153H85.7963V12.4343C85.7963 10.9559 85.0851 9.94031 83.6625 9.94031C82.8531 9.94031 82.1786 10.3003 81.6881 11.0973H81.6635C81.3447 10.3903 80.7193 9.94031 79.8976 9.94031C78.9901 9.94031 78.3892 10.3903 77.9968 11.0716H77.96V10.1331H76.0469V16.7153Z" fill="#2F234F"/>
<path fill-rule="evenodd" clip-rule="evenodd" d="M5.08876 3.37625C4.35773 3.9121 3.69668 4.54565 3.12282 5.25883C5.46785 5.03061 8.44713 5.40327 11.906 7.21627C15.5997 9.15224 18.574 9.21769 20.644 8.79913C20.4561 8.203 20.2197 7.63006 19.9396 7.08541C17.57 7.3474 14.5323 7.00061 10.992 5.14505C8.74391 3.96671 6.76223 3.48132 5.08876 3.37625ZM18.5554 5.02006C16.6841 2.82835 13.9648 1.44904 10.938 1.44904C10.0492 1.44904 9.18677 1.56801 8.36461 1.79158C9.47813 2.11008 10.661 2.57605 11.906 3.22863C14.498 4.58719 16.7358 5.02462 18.5554 5.02006ZM21.0865 10.8916C18.5858 11.4093 15.1326 11.3029 10.992 9.13269C7.12104 7.10373 4.04008 7.12928 1.96218 7.61335C1.85492 7.63831 1.75019 7.66456 1.64799 7.69188C1.37594 8.31211 1.15878 8.96433 1.00297 9.64161C1.16939 9.59501 1.34135 9.55071 1.51878 9.50936C4.03964 8.92212 7.60141 8.94762 11.906 11.2039C15.7771 13.2329 18.858 13.2073 20.9359 12.7232C21.0071 12.7067 21.0773 12.6895 21.1463 12.6719C21.1538 12.503 21.1576 12.333 21.1576 12.1621C21.1576 11.7323 21.1335 11.3083 21.0865 10.8916ZM20.8126 14.9327C18.3361 15.3866 14.9835 15.2124 10.992 13.1203C7.12104 11.0914 4.04008 11.1169 1.96218 11.601C1.50094 11.7084 1.08602 11.8392 0.720003 11.9774C0.719005 12.0388 0.718506 12.1004 0.718506 12.1621C0.718506 18.0788 5.29395 22.8753 10.938 22.8753C15.6682 22.8753 19.6478 19.5065 20.8126 14.9327Z" fill="#7F57F1"/>
</g>
<defs>
<clipPath id="clip0_1_165212">
<rect width="85.3333" height="24" fill="white" transform="translate(0.666748)"/>
</clipPath>
</defs>
</svg>
