<svg width="86" height="24" viewBox="0 0 86 24" fill="none" xmlns="http://www.w3.org/2000/svg">
<g clip-path="url(#clip0_1_165122)">
<path d="M6.08466 17.1053C4.44066 18.8287 1.65635 18.8218 0.87877 16.5249C0.726531 16.0752 0.604809 15.6128 0.515284 15.141C0.149753 13.2146 0.337357 11.2178 1.05437 9.40317C1.77139 7.58857 2.98561 6.03758 4.54349 4.94636C6.1014 3.85514 7.93298 3.2727 9.80663 3.27271C11.6803 3.27271 13.5119 3.85514 15.0697 4.94636C16.6276 6.03758 17.8418 7.58857 18.5589 9.40323C19.2759 11.2178 19.4634 13.2146 19.0979 15.141C19.0084 15.6128 18.8867 16.0752 18.7344 16.5249C17.9568 18.8218 15.1726 18.8287 13.5285 17.1053L10.9908 14.4449C10.7483 14.1908 10.7734 13.7716 10.8403 13.4191C10.8809 13.2048 10.86 12.9827 10.7803 12.7808C10.7005 12.5789 10.5654 12.4064 10.3921 12.285C10.2188 12.1636 10.0151 12.0988 9.80663 12.0988C9.5982 12.0988 9.39444 12.1636 9.22113 12.285C9.04777 12.4064 8.91272 12.5789 8.83295 12.7808C8.75317 12.9827 8.73231 13.2048 8.77299 13.4191C8.83988 13.7716 8.86488 14.1908 8.62242 14.4449L6.08466 17.1053Z" fill="url(#paint0_linear_1_165122)"/>
<path d="M26.9872 14.721H29.5336V16.2941H25.0432V7.92828H26.9872V14.721Z" fill="#3A3B7B"/>
<path d="M33.0074 16.3895C32.3859 16.3895 31.8251 16.2504 31.3249 15.9724C30.8323 15.6943 30.442 15.2971 30.154 14.7807C29.8736 14.2642 29.7334 13.6605 29.7334 12.9692C29.7334 12.286 29.8774 11.6862 30.1654 11.1698C30.4534 10.6454 30.8475 10.2442 31.3476 9.96616C31.8478 9.6881 32.4087 9.54907 33.0301 9.54907C33.6516 9.54907 34.2124 9.6881 34.7126 9.96616C35.2128 10.2442 35.6069 10.6454 35.8949 11.1698C36.1828 11.6862 36.3269 12.286 36.3269 12.9692C36.3269 13.6525 36.179 14.2563 35.8835 14.7807C35.5955 15.2971 35.1977 15.6943 34.6898 15.9724C34.1897 16.2504 33.6288 16.3895 33.0074 16.3895ZM33.0074 14.6257C33.3787 14.6257 33.6933 14.4827 33.951 14.1967C34.2162 13.9107 34.3488 13.5016 34.3488 12.9692C34.3488 12.437 34.22 12.0278 33.9623 11.7418C33.7122 11.4558 33.4015 11.3128 33.0301 11.3128C32.6512 11.3128 32.3367 11.4558 32.0866 11.7418C31.8365 12.0199 31.7114 12.429 31.7114 12.9692C31.7114 13.5016 31.8327 13.9107 32.0752 14.1967C32.3253 14.4827 32.6361 14.6257 33.0074 14.6257Z" fill="#3A3B7B"/>
<path d="M39.4271 9.54907C39.8743 9.54907 40.2646 9.64441 40.5981 9.8351C40.9391 10.0257 41.2006 10.276 41.3825 10.5858V9.64441H43.3264V16.2822C43.3264 16.8939 43.2089 17.4461 42.974 17.9386C42.7466 18.4392 42.3942 18.8364 41.9168 19.1303C41.4469 19.4243 40.8595 19.5713 40.1547 19.5713C39.2149 19.5713 38.4533 19.337 37.8697 18.8682C37.2862 18.4074 36.9527 17.7798 36.8693 16.9853H38.7905C38.8512 17.2395 38.9952 17.4382 39.2225 17.5812C39.4499 17.7321 39.7303 17.8076 40.0638 17.8076C40.4654 17.8076 40.7837 17.6844 41.0187 17.4382C41.2612 17.1998 41.3825 16.8145 41.3825 16.2822V15.3408C41.193 15.6506 40.9315 15.9048 40.5981 16.1034C40.2646 16.2941 39.8743 16.3895 39.4271 16.3895C38.9042 16.3895 38.4305 16.2504 38.0061 15.9724C37.5817 15.6863 37.2445 15.2851 36.9944 14.7687C36.7519 14.2444 36.6306 13.6406 36.6306 12.9573C36.6306 12.2741 36.7519 11.6743 36.9944 11.1579C37.2445 10.6415 37.5817 10.2442 38.0061 9.96616C38.4305 9.6881 38.9042 9.54907 39.4271 9.54907ZM41.3825 12.9692C41.3825 12.4608 41.246 12.0596 40.9732 11.7656C40.7079 11.4717 40.382 11.3247 39.9956 11.3247C39.609 11.3247 39.2794 11.4717 39.0065 11.7656C38.7413 12.0517 38.6086 12.4489 38.6086 12.9573C38.6086 13.4658 38.7413 13.871 39.0065 14.1729C39.2794 14.4668 39.609 14.6138 39.9956 14.6138C40.382 14.6138 40.7079 14.4668 40.9732 14.1729C41.246 13.8789 41.3825 13.4777 41.3825 12.9692Z" fill="#3A3B7B"/>
<path d="M47.2791 16.3895C46.6577 16.3895 46.0968 16.2504 45.5967 15.9724C45.1041 15.6943 44.7137 15.2971 44.4257 14.7807C44.1453 14.2642 44.0051 13.6605 44.0051 12.9692C44.0051 12.286 44.1491 11.6862 44.4371 11.1698C44.7251 10.6454 45.1192 10.2442 45.6194 9.96616C46.1196 9.6881 46.6804 9.54907 47.3019 9.54907C47.9233 9.54907 48.4841 9.6881 48.9843 9.96616C49.4845 10.2442 49.8786 10.6454 50.1666 11.1698C50.4546 11.6862 50.5986 12.286 50.5986 12.9692C50.5986 13.6525 50.4508 14.2563 50.1552 14.7807C49.8673 15.2971 49.4694 15.6943 48.9616 15.9724C48.4614 16.2504 47.9006 16.3895 47.2791 16.3895ZM47.2791 14.6257C47.6505 14.6257 47.965 14.4827 48.2227 14.1967C48.4879 13.9107 48.6206 13.5016 48.6206 12.9692C48.6206 12.437 48.4917 12.0278 48.234 11.7418C47.9839 11.4558 47.6732 11.3128 47.3019 11.3128C46.9229 11.3128 46.6084 11.4558 46.3583 11.7418C46.1082 12.0199 45.9832 12.429 45.9832 12.9692C45.9832 13.5016 46.1044 13.9107 46.3469 14.1967C46.5971 14.4827 46.9078 14.6257 47.2791 14.6257Z" fill="#3A3B7B"/>
<path d="M52.2665 8.95319C51.9254 8.95319 51.645 8.84991 51.4253 8.64335C51.213 8.42884 51.1069 8.16667 51.1069 7.85683C51.1069 7.53904 51.213 7.27686 51.4253 7.07029C51.645 6.85579 51.9254 6.74854 52.2665 6.74854C52.5999 6.74854 52.8728 6.85579 53.085 7.07029C53.3047 7.27686 53.4146 7.53904 53.4146 7.85683C53.4146 8.16667 53.3047 8.42884 53.085 8.64335C52.8728 8.84991 52.5999 8.95319 52.2665 8.95319ZM53.2327 9.64439V16.2941H51.2888V9.64439H53.2327Z" fill="#3A3B7B"/>
<path d="M56.2441 10.5858C56.4335 10.276 56.695 10.0257 57.0286 9.8351C57.3622 9.64441 57.7526 9.54907 58.1996 9.54907C58.7226 9.54907 59.1961 9.6881 59.6205 9.96616C60.045 10.2442 60.3786 10.6415 60.6209 11.1579C60.8708 11.6743 60.9963 12.2741 60.9963 12.9573C60.9963 13.6406 60.8708 14.2444 60.6209 14.7687C60.3786 15.2851 60.045 15.6863 59.6205 15.9724C59.1961 16.2504 58.7226 16.3895 58.1996 16.3895C57.7597 16.3895 57.3699 16.2941 57.0286 16.1034C56.695 15.9128 56.4335 15.6665 56.2441 15.3646V19.464H54.3003V9.64441H56.2441V10.5858ZM59.0182 12.9573C59.0182 12.4489 58.8817 12.0517 58.6086 11.7656C58.3433 11.4717 58.0141 11.3247 57.6199 11.3247C57.2334 11.3247 56.9036 11.4717 56.6306 11.7656C56.3657 12.0596 56.2331 12.4608 56.2331 12.9692C56.2331 13.4777 56.3657 13.8789 56.6306 14.1729C56.9036 14.4668 57.2334 14.6138 57.6199 14.6138C58.0063 14.6138 58.3361 14.4668 58.6086 14.1729C58.8817 13.871 59.0182 13.4658 59.0182 12.9573Z" fill="#3A3B7B"/>
<path d="M64.2557 16.3895C63.7024 16.3895 63.2097 16.2901 62.7775 16.0915C62.3459 15.8929 62.0045 15.6228 61.7546 15.2811C61.5047 14.9316 61.3643 14.5423 61.334 14.1133H63.2554C63.2779 14.3437 63.3803 14.5304 63.562 14.6734C63.7442 14.8164 63.9678 14.8879 64.2331 14.8879C64.4753 14.8879 64.6609 14.8402 64.7897 14.7449C64.9262 14.6416 64.9945 14.5105 64.9945 14.3516C64.9945 14.1609 64.8998 14.0219 64.7104 13.9345C64.521 13.8392 64.2138 13.7359 63.7894 13.6247C63.3346 13.5135 62.9559 13.3983 62.6525 13.2791C62.3497 13.152 62.0882 12.9573 61.8686 12.6952C61.6483 12.4251 61.5388 12.0636 61.5388 11.6107C61.5388 11.2294 61.6373 10.8838 61.8344 10.5739C62.0387 10.2562 62.3343 10.0059 62.7208 9.82315C63.115 9.64043 63.5813 9.54907 64.1192 9.54907C64.9147 9.54907 65.5401 9.75563 65.9948 10.1687C66.4573 10.5819 66.7226 11.1301 66.7909 11.8133H64.9945C64.9642 11.5829 64.8657 11.4002 64.6989 11.2651C64.5398 11.1301 64.3278 11.0625 64.0624 11.0625C63.8351 11.0625 63.6606 11.1102 63.5394 11.2055C63.4183 11.2929 63.3578 11.4161 63.3578 11.575C63.3578 11.7656 63.4525 11.9087 63.6418 12.004C63.8389 12.0993 64.1417 12.1947 64.5513 12.29C65.0209 12.4171 65.4036 12.5442 65.6992 12.6713C65.9948 12.7905 66.2525 12.9891 66.4721 13.2672C66.6995 13.5373 66.8173 13.9027 66.825 14.3636C66.825 14.7528 66.7188 15.1024 66.5063 15.4123C66.302 15.7142 66.0025 15.9525 65.6084 16.1273C65.2219 16.3021 64.771 16.3895 64.2557 16.3895Z" fill="#3A3B7B"/>
<path d="M73.9369 9.64435V16.2941H71.993V15.3884C71.7959 15.6823 71.5267 15.9207 71.1859 16.1034C70.8523 16.2782 70.4812 16.3656 70.0716 16.3656C69.5866 16.3656 69.1583 16.2543 68.7872 16.0319C68.4156 15.8015 68.1277 15.4718 67.9234 15.0428C67.7186 14.6137 67.6162 14.1093 67.6162 13.5293V9.64435H69.5486V13.2552C69.5486 13.7001 69.6587 14.0457 69.8784 14.292C70.098 14.5383 70.3937 14.6614 70.7653 14.6614C71.1441 14.6614 71.4435 14.5383 71.6632 14.292C71.8829 14.0457 71.993 13.7001 71.993 13.2552V9.64435H73.9369Z" fill="#3A3B7B"/>
<path d="M83.0862 9.57281C83.874 9.57281 84.4994 9.82306 84.9619 10.3236C85.4315 10.8241 85.6666 11.5192 85.6666 12.409V16.294H83.7342V12.6832C83.7342 12.2541 83.6241 11.9244 83.4044 11.694C83.1919 11.4557 82.8968 11.3365 82.5175 11.3365C82.1387 11.3365 81.8392 11.4557 81.6196 11.694C81.4076 11.9244 81.3014 12.2541 81.3014 12.6832V16.294H79.3684V12.6832C79.3684 12.2541 79.2589 11.9244 79.0392 11.694C78.8267 11.4557 78.531 11.3365 78.1523 11.3365C77.7735 11.3365 77.474 11.4557 77.2544 11.694C77.0418 11.9244 76.9361 12.2541 76.9361 12.6832V16.294H74.9922V9.64432H76.9361V10.4785C77.1332 10.2004 77.3909 9.98194 77.7091 9.82306C78.0273 9.65621 78.3874 9.57281 78.7887 9.57281C79.2666 9.57281 79.691 9.68004 80.0621 9.89456C80.4409 10.1091 80.7365 10.415 80.949 10.8122C81.1687 10.4467 81.4682 10.1488 81.8469 9.9184C82.2257 9.68801 82.6392 9.57281 83.0862 9.57281Z" fill="#3A3B7B"/>
</g>
<defs>
<linearGradient id="paint0_linear_1_165122" x1="18.4176" y1="8.23815" x2="1.60244" y2="8.23815" gradientUnits="userSpaceOnUse">
<stop stop-color="#64C2DB"/>
<stop offset="0.510417" stop-color="#7476ED"/>
<stop offset="1" stop-color="#E56F8C"/>
</linearGradient>
<clipPath id="clip0_1_165122">
<rect width="85.3333" height="24" fill="white" transform="translate(0.333252)"/>
</clipPath>
</defs>
</svg>
