<svg width="86" height="24" viewBox="0 0 86 24" fill="none" xmlns="http://www.w3.org/2000/svg">
<path d="M15.7899 0L0 13.8838H10.6617L6.39589 23.9858L22.3253 10.1945H11.221L15.7899 0Z" fill="#3182CE"/>
<path d="M15.7898 0L8.65751 11.2091L19.2551 11.2091L6.39575 23.9858L22.3252 10.1945L11.2208 10.1945L15.7898 0Z" fill="#2B6CB0"/>
<path d="M15.7899 0L0 13.8838H10.6617L6.39589 23.9858L13.1719 12.8692H3.15252L15.7899 0Z" fill="#4299E1"/>
<path d="M60.2962 17.0042C59.5933 17.0042 58.9483 16.9387 58.3611 16.8078C57.774 16.6682 57.2407 16.485 56.761 16.2581C56.2897 16.0226 55.8597 15.7564 55.471 15.4598L56.4385 13.6798C57.1166 14.1858 57.7988 14.5567 58.4852 14.7923C59.1715 15.0191 59.8289 15.1326 60.4574 15.1326C60.7303 15.1326 61.0156 15.1064 61.3133 15.054C61.611 14.993 61.8591 14.8926 62.0575 14.753C62.2643 14.6047 62.3676 14.404 62.3676 14.1509C62.3676 14.0026 62.318 13.8805 62.2188 13.7845C62.1278 13.6798 61.9996 13.5969 61.8343 13.5358C61.6689 13.4747 61.4745 13.4267 61.2513 13.3918C61.0363 13.3482 60.8006 13.3177 60.5442 13.3002C60.2962 13.274 60.044 13.2479 59.7876 13.2217C59.2088 13.1606 58.6837 13.0603 58.2123 12.9207C57.741 12.781 57.3358 12.6022 56.9967 12.384C56.6659 12.1572 56.4096 11.8823 56.2277 11.5595C56.0458 11.2366 55.9548 10.8658 55.9548 10.447C55.9548 9.97581 56.0623 9.55698 56.2773 9.19052C56.5006 8.82405 56.8107 8.51865 57.2076 8.27434C57.6045 8.0213 58.0593 7.82934 58.572 7.69846C59.093 7.56758 59.6512 7.50214 60.2465 7.50214C60.8667 7.50214 61.4249 7.56321 61.9211 7.68537C62.4255 7.7988 62.8679 7.95586 63.2483 8.15655C63.637 8.35723 63.9595 8.57537 64.2158 8.81096L63.1987 10.3554C62.9423 10.1547 62.6446 9.98453 62.3056 9.84493C61.9748 9.69659 61.6234 9.58316 61.2513 9.50463C60.8874 9.4261 60.5236 9.38684 60.1597 9.38684C59.7876 9.38684 59.4527 9.42174 59.155 9.49154C58.8656 9.55262 58.634 9.6486 58.4604 9.77948C58.295 9.90164 58.2123 10.0631 58.2123 10.2637C58.2123 10.447 58.2826 10.5997 58.4232 10.7218C58.572 10.8353 58.7622 10.9269 58.9938 10.9967C59.2253 11.0578 59.4816 11.1058 59.7628 11.1407C60.044 11.1756 60.3168 11.2105 60.5815 11.2454C61.0776 11.2977 61.5655 11.3675 62.0451 11.4548C62.5247 11.5333 62.9547 11.6642 63.3351 11.8474C63.7238 12.0219 64.0339 12.275 64.2654 12.6065C64.497 12.9294 64.6127 13.37 64.6127 13.9284C64.6127 14.5741 64.4267 15.1282 64.0546 15.5906C63.6824 16.0444 63.1697 16.3934 62.5165 16.6377C61.8715 16.882 61.1314 17.0042 60.2962 17.0042Z" fill="#122743"/>
<path d="M78.577 16.9796V14.9886H80.9089V9.67478H78.577L78.5357 7.75514H85.3619V9.67478H83.0176V14.9886H85.3619V16.9796H78.577Z" fill="#122743"/>
<path d="M25.4958 15.476L25.5193 16.9796H34.264L34.2406 14.9786H28.781L34.1042 9.25906V7.75514H26.3427V9.86112H30.732L25.4958 15.476Z" fill="#122743"/>
<path d="M36.0213 16.9796V7.75514H43.811V9.60934H38.068V11.3108H43.2528V13.117H38.068V15.0571H43.935V16.9796H36.0213Z" fill="#122743"/>
<path d="M73.2165 16.9518C72.2903 16.9518 71.4841 16.7599 70.7977 16.3759C70.1114 15.992 69.578 15.4641 69.1976 14.7923C68.8172 14.1204 68.6271 13.3002 68.6271 12.4364V7.75514H70.7605V12.4364C70.7605 15.6001 75.7345 15.6001 75.7345 12.4364V7.75514H77.7936V12.4364C77.7936 13.3002 77.6034 14.1204 77.223 14.7923C76.8426 15.4641 76.3092 15.992 75.6229 16.3759C74.9365 16.7599 74.1344 16.9518 73.2165 16.9518Z" fill="#122743"/>
<path d="M45.4642 12.4364V7.75514H47.5977V12.4364C47.5977 15.7047 52.5716 15.7047 52.5716 12.4364V7.75514H54.6307V12.4364C54.6307 18.5306 45.4642 18.4898 45.4642 12.4364Z" fill="#122743"/>
</svg>
